<svg xmlns="http://www.w3.org/2000/svg" width="36" height="43" viewBox="0 0 36 43">
  <defs>
    <style>
      .cls-1 {
        fill: #fff;
        fill-rule: evenodd;
      }
    </style>
  </defs>
  <path id="PJ_MM" data-name="PJ MM" class="cls-1" d="M15.2,0.034H5.168V27.161h5.094v-10.3H15.2A8.9,8.9,0,0,0,21.638,14.6,7.981,7.981,0,0,0,23.99,8.565a8.3,8.3,0,0,0-2.353-6.251A8.859,8.859,0,0,0,15.2.034h0ZM14.968,12.34H10.263V4.516h4.706a3.894,3.894,0,0,1,2.9,1.042A4.1,4.1,0,0,1,18.9,8.565a3.636,3.636,0,0,1-1.05,2.791,4.044,4.044,0,0,1-2.878.983h0Zm7.777,14.822h3.267a6.129,6.129,0,0,0,4.531-1.612,6.22,6.22,0,0,0,1.614-4.6V0.034H27.023V20.085a3.1,3.1,0,0,1-.486,1.986,2.129,2.129,0,0,1-1.692.57h-2.1v4.521Zm-7.966,1.775-3.5,7.7-3.54-7.7H5.119V42.888h2.62v-8.33L10.4,40.2h1.76l2.62-5.581v8.27H17.4V28.936h-2.62Zm15.04,0-3.5,7.7-3.54-7.7h-2.62V42.888h2.62v-8.33l2.66,5.641H27.2l2.62-5.581v8.27h2.62V28.936h-2.62Z"/>
</svg>
