<svg xmlns="http://www.w3.org/2000/svg" width="270" height="319" viewBox="0 0 270 319">
  <defs>
    <style>
      .cls-1 {
        fill: #fff;
        fill-rule: evenodd;
      }
    </style>
  </defs>
  <path id="PJ_MM" data-name="PJ MM" class="cls-1" d="M114.011,0.25H38.761V201.5H76.969V125.083h37.042q30.624,0,48.271-16.77t17.645-44.771q0-29.456-17.645-46.375T114.011,0.25h0Zm-1.75,91.292H76.969V33.5h35.292q14,0,21.729,7.729t7.729,22.313q0,13.419-7.875,20.708t-21.583,7.292h0ZM170.59,201.5h24.5q21.874,0,33.979-11.958t12.1-34.125V0.25h-38.5V149q0,10.5-3.645,14.729t-12.688,4.229H170.59V201.5Zm-59.748,13.167-26.25,57.15-26.55-57.15H38.392v103.5h19.65v-61.8l19.95,41.85h13.2l19.65-41.4v61.35h19.65v-103.5h-19.65Zm112.8,0-26.25,57.15-26.55-57.15h-19.65v103.5h19.65v-61.8l19.95,41.85h13.2l19.65-41.4v61.35h19.65v-103.5h-19.65Z"/>
</svg>
